<?xml version="1.0" encoding="utf-8"?>
<!-- Generator: Adobe Illustrator 23.0.3, SVG Export Plug-In . SVG Version: 6.00 Build 0)  -->
<svg version="1.1" id="Layer_1" xmlns="http://www.w3.org/2000/svg" xmlns:xlink="http://www.w3.org/1999/xlink" x="0px" y="0px"
	 viewBox="0 0 32 32" style="enable-background:new 0 0 32 32;" xml:space="preserve">
<style type="text/css">
	.st0{fill:#FFFFFF;}
</style>
<path class="st0" d="M27.7,22.1l-0.6-1c0-0.1-0.1-0.1-0.2-0.1c0,0,0,0,0,0L25,21c0,0,0,0,0,0c0,0,0,0,0,0l1-1.7c0-0.1,0-0.2,0-0.2
	l-0.6-1c-0.1-0.1-0.3-0.1-0.4,0l-1.7,3c0,0,0,0,0,0h-1.9c0,0,0,0,0,0c0,0,0,0,0,0l2.8-4.9c0-0.1,0-0.2,0-0.2l-0.6-1
	c-0.1-0.1-0.3-0.1-0.4,0L16,27.2c0,0,0,0-0.1,0l-1-1.7c0,0,0,0,0,0l7.2-12.6c0-0.1,0-0.2,0-0.2l-0.6-1c-0.1-0.1-0.3-0.1-0.4,0
	l-7.1,12.4c0,0,0,0-0.1,0l-1-1.7c0,0,0,0,0,0l7.2-12.6c0-0.1,0-0.2,0-0.2l-0.5-0.9c-0.1-0.1-0.3-0.1-0.4,0L12.3,21c0,0,0,0,0,0
	l-1.9,0c0,0,0,0,0,0c0,0,0,0,0,0l8.3-14.4c0-0.1,0-0.2,0-0.2l-0.6-1c-0.1-0.1-0.3-0.1-0.4,0L8.6,21c0,0,0,0,0,0H6.7c0,0,0,0,0,0
	c0,0,0,0,0,0L16.8,3.4c0-0.1,0-0.2,0-0.2l-0.6-1C16.2,2,16.1,2,16,2h0c-0.1,0-0.2,0-0.2,0.1l-11.5,20c0,0.1,0,0.2,0,0.2
	c0,0.1,0.1,0.1,0.2,0.1h7c0,0,0,0,0,0l4.2,7.4c0,0.1,0.1,0.1,0.2,0.1h0c0.1,0,0.2,0,0.2-0.1l4.2-7.4c0,0,0,0,0,0h7
	c0.1,0,0.2,0,0.2-0.1C27.7,22.3,27.7,22.2,27.7,22.1z"/>
</svg>
